<!DOCTYPE svg PUBLIC "-//W3C//DTD SVG 1.1//EN" "http://www.w3.org/Graphics/SVG/1.1/DTD/svg11.dtd">
<!-- Uploaded to: SVG Repo, www.svgrepo.com, Transformed by: SVG Repo Mixer Tools -->
<svg width="800px" height="800px" viewBox="-102.4 -102.4 1228.80 1228.80" class="icon" version="1.1" xmlns="http://www.w3.org/2000/svg" fill="#000000">
<g id="SVGRepo_bgCarrier" stroke-width="0" transform="translate(0,0), scale(1)">
<path transform="translate(-102.4, -102.4), scale(38.4)" d="M16,31.34451667356648C19.75805976399696,31.13482345399711,21.506938844261335,26.8229805565536,24.02924917633029,24.02924917633029C26.33267379631279,21.47795738601932,29.45570618865371,19.414150334077068,29.853741709142923,16C30.28726491723815,12.281453966898923,29.291891742766627,7.884866111898616,26.148483073289587,5.851516926710415C23.17559315773377,3.928469711708836,19.52671259592092,6.724731154741683,16,7.0385516558430705C13.065104327172564,7.299710002511944,9.949772644493304,5.85791489562782,7.5100377429731235,7.51003774297312C4.719603604525996,9.39964467988592,2.8605478666627184,12.631280607811211,2.766384637473445,15.999999999999998C2.670184935511241,19.441574851595803,4.7732000471960445,22.371005485466114,7.0217625557279515,24.978237444272043C9.51262462290102,27.866418298426346,12.192003819601414,31.556996258597447,16,31.34451667356648" fill="#7ed0ec" strokewidth="0"/>
</g>
<g id="SVGRepo_tracerCarrier" stroke-linecap="round" stroke-linejoin="round" stroke="#000000" stroke-width="102.4">
<path d="M513.6 830.112c-0.384-3.712-0.416-7.52-0.672-11.296-0.288-5.568-0.928-11.072-0.928-16.768l0.064-1.024L512 800a288 288 0 0 1 288-288c36.192 0 70.688 6.976 102.592 19.168L496 124.608 96 524.576V1024h520.48a287.136 287.136 0 0 1-102.88-193.888z" fill="#EAEAEA"/>
<path d="M256 672h224v352H256z" fill="#434854"/>
<path d="M768 513.888V512h-96v30.272a285.536 285.536 0 0 1 96-28.384zM560.576 640H544v28.448a279.36 279.36 0 0 1 16.576-28.448zM640 560.576V512h-96v96h41.76A289.12 289.12 0 0 1 640 560.576z" fill="#469FCC"/>
<path d="M544 512h96v32h-96zM768 513.888V512h-96v30.272a285.536 285.536 0 0 1 96-28.384zM560.576 640H544v28.448a279.36 279.36 0 0 1 16.576-28.448z" fill=""/>
<path d="M238.24 1024A126.656 126.656 0 0 0 256 960a128 128 0 0 0-256 0c0 23.424 6.752 45.088 17.76 64h220.48z" fill="#3AAD73"/>
<path d="M928 542.272V512L496 64 96 480v96L496 176l338.208 338.208a285.888 285.888 0 0 1 93.792 28.064z" fill=""/>
<path d="M983.168 577.76c2.336-1.376 4.768-2.496 6.784-4.512l22.624-22.624a31.968 31.968 0 0 0 0-45.248L541.248 34.048l-22.624-22.624a31.968 31.968 0 0 0-45.248 0l-22.624 22.624L11.424 473.376a31.968 31.968 0 0 0 0 45.248l22.624 22.624a31.968 31.968 0 0 0 45.248 0L496 124.608l406.592 406.56c29.44 11.2 56.704 26.848 80.576 46.592z" fill="#EF4D4D"/>
<path d="M800 800m-224 0a224 224 0 1 0 448 0 224 224 0 1 0-448 0Z" fill="#3AAD73"/>
<path d="M896 767.968h-64v-64a32 32 0 1 0-64 0v64h-64a32 32 0 1 0 0 64h64v64a32 32 0 1 0 64 0v-64h64a32 32 0 1 0 0-64z" fill="#FFFFFF"/>
</g>
<g id="SVGRepo_iconCarrier">
<path d="M513.6 830.112c-0.384-3.712-0.416-7.52-0.672-11.296-0.288-5.568-0.928-11.072-0.928-16.768l0.064-1.024L512 800a288 288 0 0 1 288-288c36.192 0 70.688 6.976 102.592 19.168L496 124.608 96 524.576V1024h520.48a287.136 287.136 0 0 1-102.88-193.888z" fill="#EAEAEA"/>
<path d="M256 672h224v352H256z" fill="#434854"/>
<path d="M768 513.888V512h-96v30.272a285.536 285.536 0 0 1 96-28.384zM560.576 640H544v28.448a279.36 279.36 0 0 1 16.576-28.448zM640 560.576V512h-96v96h41.76A289.12 289.12 0 0 1 640 560.576z" fill="#469FCC"/>
<path d="M544 512h96v32h-96zM768 513.888V512h-96v30.272a285.536 285.536 0 0 1 96-28.384zM560.576 640H544v28.448a279.36 279.36 0 0 1 16.576-28.448z" fill=""/>
<path d="M238.24 1024A126.656 126.656 0 0 0 256 960a128 128 0 0 0-256 0c0 23.424 6.752 45.088 17.76 64h220.48z" fill="#3AAD73"/>
<path d="M928 542.272V512L496 64 96 480v96L496 176l338.208 338.208a285.888 285.888 0 0 1 93.792 28.064z" fill=""/>
<path d="M983.168 577.76c2.336-1.376 4.768-2.496 6.784-4.512l22.624-22.624a31.968 31.968 0 0 0 0-45.248L541.248 34.048l-22.624-22.624a31.968 31.968 0 0 0-45.248 0l-22.624 22.624L11.424 473.376a31.968 31.968 0 0 0 0 45.248l22.624 22.624a31.968 31.968 0 0 0 45.248 0L496 124.608l406.592 406.56c29.44 11.2 56.704 26.848 80.576 46.592z" fill="#EF4D4D"/>
<path d="M800 800m-224 0a224 224 0 1 0 448 0 224 224 0 1 0-448 0Z" fill="#3AAD73"/>
<path d="M896 767.968h-64v-64a32 32 0 1 0-64 0v64h-64a32 32 0 1 0 0 64h64v64a32 32 0 1 0 64 0v-64h64a32 32 0 1 0 0-64z" fill="#FFFFFF"/>
</g>
</svg>